HIERARCHY
ROOT Hips
{
	OFFSET 0.00 0.00 0.00
	CHANNELS 6 Xposition Yposition Zposition Xrotation Yrotation Zrotation
	JOINT Spine
	{
		OFFSET 0.00000 7.06766 0.00000
		CHANNELS 3 Xrotation Yrotation Zrotation
		JOINT Head
		{
			OFFSET 0.00000 15.03989 0.00000
			CHANNELS 3 Xrotation Yrotation Zrotation
			End Site
			{
				OFFSET 0.00000 4.52755 0.00000
			}
		}
		JOINT LeftShoulder
		{
			OFFSET 0.00000 10.53037 0.00000
			CHANNELS 3 Xrotation Yrotation Zrotation
			JOINT LeftArm
			{
				OFFSET 7.02886 0.00000 0.00000
				CHANNELS 3 Xrotation Yrotation Zrotation
				JOINT LeftForeArm
				{
					OFFSET 10.79770 0.00000 0.00000
					CHANNELS 3 Yrotation Zrotation Xrotation
					JOINT LeftHand
					{
						OFFSET 7.90744 0.00000 0.00000
						CHANNELS 3 Xrotation Yrotation Zrotation
						JOINT LeftHandThumb1
						{
							OFFSET 0.00000 0.00000 0.00000
							CHANNELS 3 Xrotation Zrotation Yrotation
							End Site
							{
								OFFSET 0.00000 0.00000 3.93700
							}
						}
						End Site
						{
							OFFSET 3.93700 0.00000 0.00000
						}
					}
				}
			}
		}
		JOINT RightShoulder
		{
			OFFSET 0.00000 10.53037 0.00000
			CHANNELS 3 Xrotation Yrotation Zrotation
			JOINT RightArm
			{
				OFFSET -7.02886 0.00000 0.00000
				CHANNELS 3 Xrotation Yrotation Zrotation
				JOINT RightForeArm
				{
					OFFSET -10.79770 0.00000 0.00000
					CHANNELS 3 Yrotation Zrotation Xrotation
					JOINT RightHand
					{
						OFFSET -7.90744 0.00000 0.00000
						CHANNELS 3 Xrotation Yrotation Zrotation
						JOINT RightHandThumb1
						{
							OFFSET 0.00000 0.00000 0.00000
							CHANNELS 3 Xrotation Zrotation Yrotation
							End Site
							{
								OFFSET 0.00000 0.00000 3.93700
							}
						}
						End Site
						{
							OFFSET -3.93700 0.00000 0.00000
						}
					}
				}
			}
		}
	}
	JOINT LeftUpLeg
	{
		OFFSET 4.01300 0.00000 0.00000
		CHANNELS 3 Xrotation Yrotation Zrotation
		JOINT LeftLeg
		{
			OFFSET 0.00000 -16.89976 0.00000
			CHANNELS 3 Xrotation Yrotation Zrotation
			JOINT LeftFoot
			{
				OFFSET 0.00000 -17.38918 0.00000
				CHANNELS 3 Xrotation Yrotation Zrotation
				JOINT LeftToeBase
				{
					OFFSET 0.00000 -1.27456 4.75673
					CHANNELS 3 Xrotation Yrotation Zrotation
					End Site
					{
						OFFSET 0.00000 0.00000 2.95275
					}
				}
			}
		}
	}
	JOINT RightUpLeg
	{
		OFFSET -4.01300 0.00000 0.00000
		CHANNELS 3 Xrotation Yrotation Zrotation
		JOINT RightLeg
		{
			OFFSET 0.00000 -16.89976 0.00000
			CHANNELS 3 Xrotation Yrotation Zrotation
			JOINT RightFoot
			{
				OFFSET 0.00000 -17.38918 0.00000
				CHANNELS 3 Xrotation Yrotation Zrotation
				JOINT RightToeBase
				{
					OFFSET 0.00000 -1.27456 4.75673
					CHANNELS 3 Xrotation Yrotation Zrotation
					End Site
					{
						OFFSET 0.00000 0.00000 2.95275
					}
				}
			}
		}
	}
}
MOTION
Frames: 9
Frame Time: 0.008333
 19.0502 35.4425 -20.6199 10.2446 1.9340 -2.0598 -22.5703 -1.4658 0.9636 5.4759 0.7916 -0.4253 -32.1951 3.5678 16.3328 3.7472 -4.8477 -9.6031 2.7013 0.0000 9.6580 1.1092 7.2824 -8.6845 33.1476 -0.0000 26.2537 5.6714 -13.2097 -8.1002 -36.4699 0.7968 11.9801 4.5668 -0.0000 37.3296 0.9711 -5.3165 10.3668 32.8623 0.0000 -24.3270 -1.4218 8.2392 2.7324 -6.7111 0.0000 -0.0000 -18.9706 30.0491 5.5441 26.8095 0.0000 0.0000 -1.2039 -11.8619 0.4101 -4.2829 -0.0000 -0.0000 -17.4377 -27.2860 1.0856 25.8557 0.0000 0.0000
 19.0510 35.4425 -20.6182 10.2437 1.9285 -2.0613 -22.5691 -1.4440 0.9505 5.4836 0.7739 -0.4064 -32.1973 3.5620 16.3413 3.7836 -4.8551 -9.6024 2.6980 0.0000 9.6249 1.1055 7.2784 -8.6602 33.1476 -0.0000 26.2537 5.6872 -13.2360 -8.0931 -36.4880 0.8028 11.9934 4.5606 -0.0000 37.3055 0.9723 -5.3287 10.3566 32.8623 0.0000 -24.3270 -1.4152 8.2400 2.7326 -6.7152 0.0000 0.0000 -18.9658 30.0578 5.5280 26.7660 -0.0000 0.0000 -1.2022 -11.8597 0.4085 -4.2778 -0.0000 -0.0000 -17.4323 -27.2671 1.1018 25.8480 -0.0000 -0.0000
 19.0506 35.4424 -20.6169 10.2460 1.9204 -2.0679 -22.5696 -1.4297 0.9376 5.4872 0.7798 -0.3683 -32.1890 3.5774 16.3626 3.7583 -4.8721 -9.6062 2.6924 0.0000 9.6574 1.1071 7.2793 -8.6721 33.1476 -0.0000 26.2537 5.6955 -13.2457 -8.0810 -36.5449 0.7903 12.0013 4.5576 -0.0000 37.3549 0.9727 -5.3425 10.3345 32.8623 0.0000 -24.3270 -1.4135 8.2447 2.7396 -6.7196 -0.0000 0.0000 -18.9817 30.0568 5.5612 26.8021 0.0000 -0.0000 -1.2030 -11.8568 0.4167 -4.2757 -0.0000 0.0000 -17.4375 -27.2676 1.1147 25.8871 0.0000 -0.0000
 19.0505 35.4423 -20.6149 10.2352 1.9223 -2.0704 -22.5597 -1.4203 0.9223 5.5093 0.7827 -0.3455 -32.1839 3.5839 16.3726 3.7686 -4.8886 -9.6076 2.6816 0.0000 9.6345 1.1090 7.3080 -8.6532 33.1476 -0.0000 26.2537 5.7032 -13.2541 -8.0707 -36.5483 0.7877 12.0025 4.5634 -0.0000 37.3371 0.9739 -5.3465 10.3394 32.8623 0.0000 -24.3270 -1.3975 8.2429 2.7435 -6.7243 0.0000 -0.0000 -18.9792 30.0611 5.5363 26.7825 0.0000 -0.0000 -1.1919 -11.8651 0.4219 -4.2706 0.0000 -0.0000 -17.4485 -27.2717 1.0925 25.9005 0.0000 0.0000
 19.0504 35.4422 -20.6140 10.2355 1.9204 -2.0753 -22.5616 -1.4121 0.9096 5.5249 0.7794 -0.3165 -32.1791 3.5836 16.3785 3.7761 -4.8866 -9.5999 2.6635 0.0000 9.6009 1.1056 7.2929 -8.6448 33.1476 -0.0000 26.2537 5.7052 -13.2577 -8.0600 -36.5564 0.7902 12.0025 4.5559 -0.0000 37.3259 0.9745 -5.3518 10.3358 32.8623 0.0000 -24.3270 -1.3952 8.2443 2.7470 -6.7291 0.0000 -0.0000 -18.9799 30.0648 5.5527 26.8079 0.0000 -0.0000 -1.1899 -11.8614 0.4277 -4.2719 -0.0000 0.0000 -17.4310 -27.2815 1.0926 25.8144 -0.0000 0.0000
 19.0511 35.4423 -20.6131 10.2350 1.9160 -2.0718 -22.5629 -1.3950 0.8922 5.5467 0.7738 -0.3047 -32.1971 3.5806 16.3822 3.7738 -4.8933 -9.5953 2.6562 0.0000 9.5944 1.1051 7.3122 -8.6180 33.1476 -0.0000 26.2537 5.7020 -13.2620 -8.0562 -36.5629 0.7768 12.0047 4.5670 -0.0000 37.3133 0.9721 -5.3406 10.3315 32.8623 0.0000 -24.3270 -1.3919 8.2467 2.7430 -6.7287 0.0000 -0.0000 -18.9773 30.0703 5.5424 26.8053 -0.0000 -0.0000 -1.1923 -11.8493 0.4230 -4.2679 0.0000 0.0000 -17.4375 -27.2865 1.0802 25.8451 0.0000 0.0000
 19.0499 35.4425 -20.6125 10.2386 1.9220 -2.0736 -22.5722 -1.3797 0.8660 5.5683 0.7725 -0.2780 -32.2071 3.5696 16.3926 3.7833 -4.8987 -9.5939 2.6299 0.0000 9.5850 1.1066 7.3378 -8.6004 33.1476 -0.0000 26.2537 5.7282 -13.2883 -8.0348 -36.5953 0.7863 12.0162 4.5666 -0.0000 37.3214 0.9757 -5.3550 10.3418 32.8623 0.0000 -24.3270 -1.4015 8.2490 2.7469 -6.7189 -0.0000 0.0000 -18.9754 30.0579 5.5403 26.7968 0.0000 -0.0000 -1.1940 -11.8611 0.4259 -4.2653 0.0000 0.0000 -17.4348 -27.2799 1.0962 25.8149 -0.0000 0.0000
 19.0506 35.4423 -20.6111 10.2336 1.9237 -2.0737 -22.5703 -1.3741 0.8533 5.5937 0.7737 -0.2697 -32.2170 3.5733 16.3857 3.7867 -4.9042 -9.5760 2.6232 0.0000 9.5643 1.1033 7.3202 -8.5953 33.1476 -0.0000 26.2537 5.7381 -13.2912 -8.0360 -36.6220 0.7774 12.0240 4.5671 -0.0000 37.3351 0.9757 -5.3443 10.3618 32.8623 0.0000 -24.3270 -1.3961 8.2482 2.7452 -6.7141 -0.0000 0.0000 -18.9855 30.0546 5.5540 26.7791 -0.0000 0.0000 -1.1887 -11.8648 0.4261 -4.2629 -0.0000 0.0000 -17.4499 -27.2885 1.0859 25.8796 0.0000 -0.0000
 19.0499 35.4422 -20.6101 10.2301 1.9187 -2.0785 -22.5674 -1.3677 0.8453 5.6204 0.7672 -0.2665 -32.2218 3.5874 16.3902 3.7811 -4.9215 -9.5708 2.6237 0.0000 9.5351 1.0978 7.3165 -8.5574 33.1476 -0.0000 26.2537 5.7321 -13.2947 -8.0312 -36.6087 0.7869 12.0272 4.5790 -0.0000 37.3156 0.9921 -5.4096 10.4081 32.8623 0.0000 -24.3270 -1.3903 8.2473 2.7522 -6.7168 -0.0000 -0.0000 -18.9892 30.0604 5.5521 26.7899 -0.0000 -0.0000 -1.1796 -11.8576 0.4324 -4.2678 -0.0000 -0.0000 -17.4350 -27.2779 1.0974 25.8477 0.0000 -0.0000
